<?xml version="1.0" standalone="no"?>
<!DOCTYPE svg PUBLIC "-//W3C//DTD SVG 20010904//EN"
 "http://www.w3.org/TR/2001/REC-SVG-20010904/DTD/svg10.dtd">
<svg version="1.0" xmlns="http://www.w3.org/2000/svg"
 width="279.000000pt" height="374.000000pt" viewBox="0 0 279.000000 374.000000"
 preserveAspectRatio="xMidYMid meet">

<g transform="translate(0.000000,374.000000) scale(0.100000,-0.100000)"
fill="#000000" stroke="none">
<path d="M722 3496 l-663 -181 3 -677 c3 -599 1 -670 -11 -615 l-14 62 -13
-30 c-7 -16 -11 -41 -9 -55 3 -14 6 -41 7 -60 1 -19 5 -39 8 -45 4 -5 10 -25
13 -43 15 -77 105 -228 191 -322 189 -206 442 -359 796 -481 125 -44 330 -99
366 -99 12 0 73 13 135 30 604 156 1041 452 1191 804 17 38 28 79 25 92 -2 13
1 22 7 21 6 -1 13 21 16 55 3 31 2 54 -2 51 -5 -2 -9 11 -9 29 -1 18 -3 25 -6
15 -19 -71 -23 46 -23 622 0 352 -3 642 -7 644 -7 4 -625 172 -1098 298 -82
22 -170 46 -195 53 -44 13 -55 11 -708 -168z m657 -24 c-6 -20 -32 -80 -56
-132 -50 -106 -83 -193 -84 -224 0 -13 -3 -16 -6 -7 -5 11 -7 11 -14 0 -7 -12
-9 -12 -9 0 0 11 -4 10 -16 -5 -8 -10 -13 -14 -10 -8 3 7 -1 14 -8 17 -8 3
-17 1 -20 -6 -2 -7 -5 -4 -5 6 -2 30 25 83 132 263 67 114 103 166 105 153 2
-11 -2 -36 -9 -57z m106 -59 c30 -50 45 -84 42 -99 -7 -38 -121 -224 -134
-219 -7 2 -18 -2 -25 -9 -13 -12 -44 -14 -55 -3 -7 8 21 103 67 222 23 61 45
127 48 148 2 20 6 37 8 37 1 0 23 -35 49 -77z m119 -195 c14 -24 30 -64 36
-91 11 -50 4 -130 -11 -121 -5 3 -9 1 -9 -4 0 -5 -22 -9 -50 -8 -29 1 -50 -2
-50 -9 0 -5 -5 -3 -10 5 -5 8 -10 11 -10 5 0 -5 -11 -10 -25 -10 -14 0 -25 5
-25 10 -1 9 122 263 127 264 1 1 13 -18 27 -41z m-1244 -62 c0 -31 -23 -76
-39 -76 -12 0 -31 48 -31 78 0 15 7 38 17 51 l16 24 19 -23 c10 -12 18 -36 18
-54z m2140 3 c0 -31 -19 -79 -31 -79 -16 0 -39 45 -39 75 0 17 7 41 17 54 l16
24 19 -23 c10 -12 18 -35 18 -51z m-2219 -68 c35 -36 40 -81 8 -81 -27 0 -89
62 -89 89 0 32 45 27 81 -8z m169 8 c0 -27 -62 -89 -89 -89 -32 0 -27 45 8 81
36 35 81 40 81 8z m1971 -8 c31 -32 40 -81 14 -81 -42 0 -95 53 -95 94 0 27
48 19 81 -13z m169 8 c0 -27 -62 -89 -89 -89 -32 0 -27 45 8 81 36 35 81 40
81 8z m-1196 -25 c3 -8 2 -12 -4 -9 -6 3 -10 1 -10 -6 0 -7 -2 -10 -5 -7 -5 5
4 38 10 38 2 0 6 -7 9 -16z m-1126 -90 c43 -28 55 -102 17 -96 -53 8 -95 53
-95 103 0 18 4 20 28 14 15 -3 37 -13 50 -21z m192 6 c0 -49 -36 -88 -97 -105
-20 -6 -23 -3 -23 22 0 37 25 72 64 89 43 19 56 17 56 -6z m1924 6 c41 -17 66
-51 66 -89 0 -25 -3 -28 -22 -22 -62 17 -98 56 -98 105 0 24 9 25 54 6z m216
-6 c0 -48 -33 -85 -93 -104 -51 -16 -18 86 36 109 44 20 57 18 57 -5z m-1605
-81 c28 -10 65 -28 83 -39 28 -17 33 -25 28 -45 -4 -14 -1 -25 7 -28 7 -3 4
-6 -6 -6 -10 -1 -15 -5 -12 -11 3 -6 -1 -7 -9 -4 -9 3 -13 10 -10 15 3 5 -1 6
-9 3 -15 -6 -148 80 -185 119 l-24 25 44 -5 c23 -3 66 -14 93 -24z m914 5
c-37 -40 -170 -126 -186 -120 -8 3 -11 2 -8 -4 3 -5 -5 -14 -17 -21 -13 -6
-20 -8 -16 -4 4 4 3 17 -3 28 -6 10 -7 17 -2 14 5 -3 9 3 9 13 0 15 -4 17 -16
8 -8 -5 2 6 24 25 43 41 141 78 225 86 9 1 6 -8 -10 -25z m-1659 -40 c32 -19
60 -63 60 -93 0 -36 -55 -28 -96 13 -41 41 -49 96 -13 96 11 0 33 -7 49 -16z
m220 -15 c0 -42 -58 -99 -101 -99 -23 0 -29 4 -29 20 0 35 27 76 62 93 52 26
68 22 68 -14z m1914 16 c35 -17 66 -61 66 -94 0 -17 -6 -21 -31 -21 -43 0 -99
56 -99 99 0 36 14 39 64 16z m226 -16 c0 -43 -56 -99 -99 -99 -25 0 -31 4 -31
21 0 48 59 108 108 109 18 0 22 -5 22 -31z m-2370 -112 c32 -16 70 -73 70
-105 0 -23 -3 -24 -36 -19 -54 9 -93 49 -108 110 -6 24 -4 27 21 27 16 0 39
-6 53 -13z m240 -17 c0 -44 -54 -99 -104 -107 l-39 -6 6 39 c8 50 63 104 107
104 27 0 30 -3 30 -30z m1925 -2 c25 -23 38 -45 42 -72 l6 -39 -39 6 c-50 8
-104 63 -104 107 0 27 3 30 30 30 20 0 42 -11 65 -32z m220 10 c-4 -13 -9 -31
-11 -40 -9 -31 -73 -78 -106 -78 -30 0 -30 1 -25 38 9 52 64 102 113 102 32 0
35 -2 29 -22z m-2387 -124 c37 -22 62 -58 69 -99 5 -33 4 -35 -23 -35 -58 0
-115 52 -129 118 -6 31 -5 32 25 32 18 0 44 -7 58 -16z m257 -16 c-14 -66 -70
-118 -127 -118 -22 0 -28 5 -28 23 0 60 67 127 128 127 33 0 33 -1 27 -32z
m670 5 c39 -8 103 -30 143 -48 l72 -34 0 -124 c0 -68 -3 -218 -7 -333 l-6
-209 -250 -1 c-138 0 -242 3 -231 7 17 7 17 8 1 8 -10 1 -16 5 -13 10 4 5 2
11 -2 13 -5 1 -21 143 -36 313 -15 171 -29 325 -32 343 -5 30 -2 34 33 48 77
33 203 35 328 7z m770 -2 l50 -16 -3 -50 c-8 -121 -53 -613 -59 -640 -4 -16
-6 -33 -5 -36 0 -3 -26 -5 -59 -5 -32 0 -59 3 -59 7 0 3 -7 6 -15 6 -8 0 -12
-4 -9 -8 8 -14 -46 -23 -59 -10 -12 12 -41 15 -34 4 3 -5 -14 -7 -36 -6 -139
8 -213 8 -218 1 -7 -11 -19 325 -19 529 l0 144 73 34 c156 72 321 89 452 46z
m443 13 c37 -22 62 -58 69 -99 5 -33 4 -35 -23 -35 -58 0 -115 52 -129 118 -6
31 -5 32 25 32 18 0 44 -7 58 -16z m262 1 c0 -27 -27 -79 -53 -103 -14 -13
-43 -26 -66 -29 -38 -5 -41 -4 -41 18 0 35 31 86 65 109 37 24 95 27 95 5z
m-2403 -143 c31 -17 63 -66 70 -107 5 -33 4 -35 -21 -35 -33 0 -84 25 -108 54
-22 27 -41 83 -35 101 6 15 54 8 94 -13z m270 13 c11 -29 -26 -102 -65 -129
-48 -33 -102 -36 -102 -5 0 28 27 83 50 104 17 15 82 43 103 45 4 0 10 -7 14
-15z m2140 0 c11 -31 -25 -99 -69 -128 -52 -34 -98 -36 -98 -6 0 28 27 83 50
104 17 15 82 43 103 45 4 0 10 -7 14 -15z m-270 -15 c40 -24 62 -57 70 -105
l6 -38 -41 5 c-22 3 -52 14 -66 24 -27 20 -66 89 -66 117 0 24 56 22 97 -3z
m-1597 -43 c0 -34 51 -604 55 -614 3 -9 30 -13 87 -13 46 0 106 -6 134 -14 56
-15 153 -64 197 -100 26 -21 23 -21 -60 8 -85 30 -93 31 -265 31 l-177 0 -5
30 c-9 49 -86 631 -86 648 0 14 26 22 113 36 4 0 7 -5 7 -12z m1308 -2 c30 -5
42 -12 42 -23 0 -10 -20 -165 -45 -347 -25 -181 -45 -333 -45 -336 0 -4 -24
-2 -52 3 -29 6 -109 8 -178 6 -104 -4 -140 -10 -213 -35 -84 -28 -87 -28 -60
-7 41 34 135 82 190 99 26 8 87 15 135 15 48 0 89 4 92 9 4 6 56 581 56 621 0
6 8 9 18 6 9 -2 36 -8 60 -11z m-1756 -213 c-8 -26 -9 -26 -14 -4 -4 12 -2 20
3 16 5 -3 9 -1 9 5 0 5 -5 11 -12 13 -7 3 -8 10 -3 17 13 23 28 -15 17 -47z
m311 36 c3 -13 20 -138 37 -278 17 -140 35 -265 40 -276 8 -20 12 -21 57 -12
86 17 270 11 356 -11 80 -21 141 -48 82 -36 -79 15 -353 16 -450 2 -55 -9
-103 -13 -106 -9 -7 8 -129 590 -129 615 0 10 11 17 33 20 70 8 75 8 80 -15z
m1616 6 c3 -3 -10 -74 -27 -159 -18 -85 -46 -226 -64 -312 -17 -87 -32 -159
-33 -160 -1 -2 -49 4 -106 13 -102 15 -375 15 -454 -1 -60 -12 2 15 82 36 87
23 270 28 356 11 45 -9 49 -8 57 12 5 11 23 136 40 276 17 140 34 265 37 278
5 22 9 23 57 17 28 -4 53 -9 55 -11z m208 -19 c-15 -16 -22 -11 -13 10 3 9 10
13 16 10 6 -4 5 -11 -3 -20z m3 -46 c0 -6 -4 -7 -10 -4 -5 3 -10 11 -10 16 0
6 5 7 10 4 6 -3 10 -11 10 -16z m-2433 -181 c-3 -8 -6 -5 -6 6 -1 11 2 17 5
13 3 -3 4 -12 1 -19z m2694 -35 c-9 -16 -10 -15 -11 8 0 14 3 29 8 33 12 12
14 -22 3 -41z m-2653 -54 c-3 -8 -7 -3 -11 10 -4 17 -3 21 5 13 5 -5 8 -16 6
-23z m2629 -41 c-3 -8 -6 -5 -6 6 -1 11 2 17 5 13 3 -3 4 -12 1 -19z m-1660
-34 c-3 -3 -12 -4 -19 -1 -8 3 -5 6 6 6 11 1 17 -2 13 -5z m-757 -289 c13 -14
21 -25 18 -25 -2 0 -15 11 -28 25 -13 14 -21 25 -18 25 2 0 15 -11 28 -25z
m2200 -18 c0 -2 -12 -14 -27 -28 l-28 -24 24 28 c23 25 31 32 31 24z m-1550
-63 c0 -25 38 -54 72 -54 24 0 29 -3 20 -12 -6 -6 -23 -13 -38 -14 -15 -2 -34
-6 -43 -10 -9 -4 -23 -8 -31 -10 -8 -1 -24 -5 -35 -9 -15 -4 -28 2 -49 24
l-30 31 26 0 c14 0 28 -7 32 -15 3 -8 15 -15 28 -15 20 0 21 1 6 16 -14 14
-14 19 6 54 20 37 36 44 36 14z m585 -109 c36 -3 65 -10 65 -14 0 -4 -22 -28
-49 -52 -46 -42 -48 -47 -45 -88 l3 -43 -32 34 c-18 20 -54 63 -80 97 l-48 62
-47 -7 c-26 -3 -48 -8 -50 -9 -2 -1 29 -13 68 -26 38 -12 70 -26 70 -30 0 -4
-14 -10 -30 -14 -17 -4 -37 -13 -45 -22 -13 -12 -15 -12 -15 0 0 8 -20 31 -45
51 -25 21 -45 41 -45 46 0 5 30 12 66 15 l66 8 31 65 30 65 33 -65 33 -66 66
-7z m365 82 c0 -5 -4 -6 -8 -3 -4 2 -9 -5 -9 -17 -2 -20 -1 -20 8 -4 7 12 14
15 22 8 7 -5 26 -11 43 -13 l31 -3 -25 -25 c-14 -14 -19 -16 -11 -6 13 18 12
19 -6 12 -48 -18 -71 -17 -94 3 -13 11 -29 18 -35 14 -6 -3 1 5 15 19 15 14
30 35 34 48 l7 23 14 -24 c7 -13 13 -28 14 -32z m-70 -51 l42 -23 -28 -7 c-22
-6 -33 -2 -58 23 -38 39 -17 42 44 7z m-827 -28 c-6 -7 -9 -23 -8 -35 2 -27 1
-28 -19 -7 -20 19 -21 45 -2 38 8 -3 17 -1 21 5 3 6 9 11 12 11 3 0 1 -6 -4
-12z m913 -6 c14 -9 26 -42 15 -42 -4 0 -18 11 -31 25 -16 17 -19 25 -9 25 8
0 19 -4 25 -8z m-983 -22 c-3 -11 -9 -20 -14 -20 -11 0 -11 3 -3 24 9 23 23
20 17 -4z m918 -24 c-21 -20 -22 -20 -15 -1 11 32 28 49 32 35 3 -7 -5 -22
-17 -34z m-449 -98 c2 -20 0 -34 -5 -31 -4 2 -13 0 -20 -6 -7 -5 -18 -7 -24
-3 -9 6 -5 20 14 52 28 47 29 46 35 -12z"/>
<path d="M1728 1853 c6 -2 18 -2 25 0 6 3 1 5 -13 5 -14 0 -19 -2 -12 -5z"/>
<path d="M930 1420 c0 -19 3 -21 12 -12 9 9 9 15 0 24 -9 9 -12 7 -12 -12z"/>
<path d="M1400 1358 c0 -63 5 -71 49 -87 33 -11 37 -10 73 26 21 20 36 38 34
40 -1 2 -23 -4 -47 -13 -51 -18 -99 -28 -99 -19 0 3 7 17 16 31 14 21 15 29 4
49 -21 39 -30 30 -30 -27z"/>
<path d="M2772 2040 c0 -14 2 -19 5 -12 2 6 2 18 0 25 -3 6 -5 1 -5 -13z"/>
<path d="M642 877 c-44 -14 -92 -70 -92 -107 0 -68 45 -108 147 -130 72 -16
103 -30 103 -49 0 -29 -22 -41 -71 -41 -49 0 -79 18 -79 46 0 10 -14 14 -55
14 -49 0 -55 -2 -55 -20 0 -74 72 -120 190 -120 130 0 190 43 190 133 0 62
-27 90 -106 112 -33 8 -76 20 -97 26 -70 19 -57 69 19 69 40 0 74 -18 74 -41
0 -5 23 -9 50 -9 48 0 50 1 50 28 0 32 -39 75 -83 91 -35 14 -141 12 -185 -2z"/>
<path d="M1000 680 l0 -210 60 0 60 0 0 85 0 85 65 0 65 0 0 -85 0 -85 60 0
60 0 0 210 0 210 -60 0 -60 0 0 -80 0 -80 -70 0 -70 0 0 80 0 80 -55 0 -55 0
0 -210z"/>
<path d="M1460 680 l0 -210 60 0 60 0 0 80 0 80 78 0 c91 0 135 21 158 75 18
45 18 69 -3 112 -27 58 -74 73 -225 73 l-128 0 0 -210z m232 113 c21 -18 24
-53 6 -71 -7 -7 -36 -12 -65 -12 l-53 0 0 50 0 50 47 0 c29 0 53 -6 65 -17z"/>
<path d="M1954 871 c-53 -24 -74 -55 -74 -107 0 -72 34 -100 159 -128 75 -17
101 -37 85 -64 -8 -12 -27 -18 -68 -20 -54 -3 -57 -2 -74 27 -15 28 -22 31
-64 31 -46 0 -48 -1 -48 -29 0 -36 34 -79 76 -97 43 -18 175 -18 217 0 50 21
79 59 84 110 5 42 3 48 -29 80 -27 27 -48 37 -113 51 -92 20 -120 38 -104 67
8 16 19 18 62 16 43 -2 54 -7 62 -25 8 -20 17 -23 64 -23 l54 0 -7 32 c-8 41
-23 57 -71 79 -54 25 -157 25 -211 0z"/>
<path d="M570 341 c0 -64 2 -71 20 -71 13 0 20 7 20 19 0 31 19 35 32 7 7 -18
19 -26 35 -26 26 0 25 3 -8 51 -18 26 -18 27 1 52 11 14 20 28 20 31 0 15 -29
4 -51 -20 l-24 -26 -5 24 c-3 12 -14 24 -23 26 -15 3 -17 -6 -17 -67z"/>
<path d="M720 351 c0 -68 13 -85 67 -85 48 0 65 25 61 89 -2 37 -7 51 -20 53
-14 3 -17 -6 -20 -55 -3 -50 -6 -58 -23 -58 -17 0 -20 8 -23 58 -3 49 -6 57
-22 57 -18 0 -20 -7 -20 -59z"/>
<path d="M880 341 c0 -64 2 -71 20 -71 15 0 20 7 20 25 0 16 6 25 15 25 9 0
20 -11 25 -25 9 -23 18 -29 37 -22 9 3 4 39 -7 51 -5 5 -3 17 3 27 20 33 -3
54 -62 57 l-51 3 0 -70z m80 24 c0 -8 -9 -15 -20 -15 -11 0 -20 7 -20 15 0 8
9 15 20 15 11 0 20 -7 20 -15z"/>
<path d="M1037 403 c-12 -12 -7 -99 7 -118 9 -12 26 -19 49 -19 54 0 67 17 67
85 0 52 -2 59 -20 59 -16 0 -19 -8 -22 -57 -3 -50 -6 -58 -23 -58 -17 0 -20 8
-23 58 -3 54 -15 71 -35 50z"/>
<path d="M1190 340 c0 -62 2 -70 19 -70 12 0 21 8 23 22 4 31 23 33 36 3 7
-15 20 -25 32 -25 25 0 25 1 -1 44 l-21 36 22 27 c20 25 20 28 5 31 -10 2 -29
-10 -46 -30 l-28 -33 -1 33 c0 25 -4 32 -20 32 -18 0 -20 -7 -20 -70z"/>
<path d="M1359 391 c-30 -24 -18 -49 28 -65 41 -14 50 -24 29 -32 -10 -4 -28
-1 -42 6 -30 17 -44 5 -21 -17 10 -10 31 -17 52 -16 77 2 89 59 18 81 -55 18
-57 37 -3 28 43 -7 54 6 21 24 -29 15 -56 12 -82 -9z"/>
<path d="M1497 403 c-4 -3 -7 -35 -7 -70 0 -56 2 -63 20 -63 15 0 20 7 20 25
0 20 5 25 25 25 20 0 25 -5 25 -25 0 -18 5 -25 20 -25 18 0 20 7 20 70 0 63
-2 70 -20 70 -16 0 -20 -7 -20 -30 0 -25 -4 -30 -25 -30 -21 0 -25 5 -25 30 0
28 -17 40 -33 23z"/>
<path d="M1657 403 c-4 -3 -7 -35 -7 -70 l0 -63 55 0 c59 0 76 17 23 22 -22 2
-34 9 -36 21 -3 14 4 17 32 17 20 0 36 5 36 10 0 6 -16 10 -35 10 -24 0 -35 5
-35 15 0 10 11 15 35 15 24 0 35 5 35 15 0 11 -12 15 -48 15 -27 0 -52 -3 -55
-7z"/>
<path d="M1780 395 c0 -8 9 -15 20 -15 18 0 20 -7 20 -55 0 -48 2 -55 20 -55
18 0 20 7 20 55 0 48 2 55 20 55 11 0 20 7 20 15 0 12 -13 15 -60 15 -47 0
-60 -3 -60 -15z"/>
<path d="M1927 403 c-4 -3 -7 -35 -7 -70 0 -56 2 -63 20 -63 15 0 20 7 20 25
0 33 36 35 46 3 7 -25 24 -39 36 -32 13 8 9 41 -7 54 -13 11 -13 14 0 27 34
34 5 63 -63 63 -21 0 -42 -3 -45 -7z m83 -38 c0 -9 -9 -15 -25 -15 -16 0 -25
6 -25 15 0 9 9 15 25 15 16 0 25 -6 25 -15z"/>
<path d="M2109 383 c-17 -43 -39 -105 -39 -109 0 -2 9 -4 20 -4 11 0 20 5 20
10 0 6 13 10 29 10 17 0 33 -4 36 -10 3 -5 15 -10 25 -10 19 0 19 2 -2 58 -12
31 -26 63 -31 70 -17 21 -47 14 -58 -15z m45 -39 c9 -23 8 -24 -13 -24 -14 0
-18 5 -14 20 6 24 19 26 27 4z"/>
<path d="M547 193 c-4 -3 -7 -48 -7 -100 l0 -93 855 0 855 0 0 100 0 100 -848
0 c-467 0 -852 -3 -855 -7z m101 -45 c14 -14 16 -108 2 -108 -5 0 -10 7 -10
15 0 8 -9 15 -20 15 -11 0 -20 -7 -20 -15 0 -8 -4 -15 -10 -15 -14 0 -12 94 2
108 7 7 19 12 28 12 9 0 21 -5 28 -12z m131 -1 c14 -18 2 -30 -16 -16 -18 16
-45 -7 -41 -35 4 -28 38 -34 38 -7 0 12 6 21 15 21 10 0 15 -11 15 -35 0 -32
-2 -35 -29 -35 -37 0 -61 23 -61 57 0 49 52 82 79 50z m90 -4 c9 -16 12 -16
20 -3 11 16 127 24 136 10 3 -5 18 -3 34 3 30 11 61 5 61 -13 0 -5 -7 -10 -15
-10 -11 0 -15 -12 -15 -45 0 -25 -4 -45 -10 -45 -5 0 -10 19 -10 43 0 32 -4
44 -15 44 -11 0 -15 -12 -15 -44 0 -24 -4 -43 -10 -43 -5 0 -10 7 -10 15 0 8
-9 15 -20 15 -11 0 -20 -6 -20 -13 0 -18 -75 -20 -90 -2 -7 8 -9 24 -4 37 6
20 5 21 -9 9 -12 -9 -14 -18 -7 -31 9 -17 4 -30 -12 -30 -4 0 -8 7 -8 15 0 8
-7 15 -15 15 -8 0 -15 -7 -15 -15 0 -8 -4 -15 -10 -15 -6 0 -10 27 -10 60 0
60 0 60 30 60 17 0 33 -7 39 -17z m360 0 c10 -17 10 -17 11 0 0 9 5 17 10 17
11 0 13 -17 10 -62 -1 -24 2 -28 24 -28 22 0 26 4 26 29 0 30 22 61 42 61 6 0
20 -7 30 -17 17 -15 19 -15 36 0 21 19 48 22 57 7 4 -6 15 -5 30 2 26 12 55 5
55 -12 0 -7 -8 -9 -19 -5 -11 3 -22 1 -25 -4 -4 -5 3 -12 14 -16 26 -8 26 -25
0 -25 -11 0 -20 -5 -20 -11 0 -7 11 -9 30 -5 28 5 30 4 20 -14 -12 -22 -40
-26 -58 -8 -9 9 -15 9 -24 0 -17 -17 -38 -15 -60 5 -17 15 -18 15 -18 0 0 -10
-7 -17 -15 -17 -8 0 -15 7 -15 15 0 19 -29 19 -36 0 -4 -10 -20 -15 -50 -15
-44 0 -44 0 -44 35 l0 35 -20 -20 c-11 -11 -24 -20 -30 -20 -5 0 -10 -7 -10
-15 0 -8 -7 -15 -15 -15 -12 0 -15 13 -15 60 l0 60 35 0 c22 0 38 -6 44 -17z
m436 7 c5 -8 11 -7 21 1 21 17 63 2 74 -27 13 -34 -12 -84 -42 -84 -24 0 -58
35 -58 61 0 10 -4 21 -10 24 -6 4 -10 -12 -10 -39 0 -25 -4 -46 -10 -46 -5 0
-10 20 -10 44 0 37 -4 45 -22 50 -19 5 -21 8 -8 16 20 13 67 13 75 0z m165
-35 c0 -38 3 -45 20 -45 12 0 20 7 21 18 1 9 2 25 3 36 1 24 28 41 50 33 23
-9 20 -30 -3 -22 -11 3 -22 1 -26 -5 -4 -7 2 -14 14 -17 27 -7 27 -23 1 -23
-11 0 -20 -4 -20 -10 0 -5 6 -10 14 -10 27 0 45 12 39 26 -7 20 24 64 45 64
10 0 23 -5 30 -12 14 -14 16 -108 2 -108 -5 0 -10 7 -10 15 0 8 -9 15 -20 15
-11 0 -20 -6 -20 -13 0 -16 -69 -20 -87 -5 -9 7 -13 7 -13 -1 0 -6 -16 -11
-35 -11 l-35 0 0 60 c0 47 3 60 15 60 11 0 15 -12 15 -45z m279 31 c7 -8 10
-28 8 -45 -3 -17 -1 -33 4 -37 5 -3 9 17 9 45 l0 51 34 0 c22 0 36 -6 40 -16
10 -26 7 -104 -4 -104 -5 0 -10 15 -10 34 0 19 -3 42 -6 50 -11 28 -34 -2 -34
-44 0 -33 -3 -37 -24 -37 -14 0 -27 6 -30 13 -7 19 -26 18 -26 -1 0 -8 -7 -15
-15 -15 -12 0 -15 13 -15 60 0 59 0 60 29 60 16 0 34 -6 40 -14z"/>
<path d="M607 133 c-14 -13 -6 -33 13 -33 22 0 23 1 14 24 -7 17 -16 20 -27 9z"/>
<path d="M916 132 c-12 -11 -5 -22 14 -22 11 0 20 -4 20 -10 0 -5 -11 -10 -25
-10 -14 0 -25 -4 -25 -10 0 -11 20 -13 44 -4 23 9 20 51 -3 57 -11 3 -22 2
-25 -1z"/>
<path d="M987 133 c-14 -13 -6 -33 13 -33 11 0 20 4 20 9 0 13 -26 32 -33 24z"/>
<path d="M820 115 c0 -8 7 -15 15 -15 8 0 15 7 15 15 0 8 -7 15 -15 15 -8 0
-15 -7 -15 -15z"/>
<path d="M1186 133 c-12 -12 -6 -33 9 -33 8 0 15 6 15 14 0 17 -14 28 -24 19z"/>
<path d="M1342 128 c-18 -18 -14 -28 8 -28 11 0 20 6 20 14 0 21 -15 27 -28
14z"/>
<path d="M1426 115 c-8 -22 4 -45 24 -45 24 0 51 27 44 43 -7 19 -61 20 -68 2z"/>
<path d="M1703 133 c-7 -3 -13 -18 -13 -35 0 -25 3 -29 23 -26 15 2 23 11 25
29 3 27 -12 40 -35 32z"/>
<path d="M1970 116 c0 -10 9 -16 21 -16 24 0 21 23 -4 28 -10 2 -17 -3 -17
-12z"/>
<path d="M2070 115 c0 -8 7 -15 15 -15 8 0 15 7 15 15 0 8 -7 15 -15 15 -8 0
-15 -7 -15 -15z"/>
</g>
</svg>
